<?xml version="1.0" standalone="no"?><svg xmlns="http://www.w3.org/2000/svg" viewBox="0 0 1440 320"><path fill="#0099ff" fill-opacity="1" d="M0,256L36.9,96L73.8,160L110.8,192L147.7,192L184.6,192L221.5,160L258.5,224L295.4,32L332.3,192L369.2,192L406.2,256L443.1,96L480,192L516.9,96L553.8,32L590.8,256L627.7,288L664.6,32L701.5,256L738.5,160L775.4,0L812.3,32L849.2,256L886.2,192L923.1,96L960,256L996.9,256L1033.8,256L1070.8,288L1107.7,64L1144.6,64L1181.5,288L1218.5,96L1255.4,256L1292.3,32L1329.2,256L1366.2,128L1403.1,32L1440,160L1440,0L1403.1,0L1366.2,0L1329.2,0L1292.3,0L1255.4,0L1218.5,0L1181.5,0L1144.6,0L1107.7,0L1070.8,0L1033.8,0L996.9,0L960,0L923.1,0L886.2,0L849.2,0L812.3,0L775.4,0L738.5,0L701.5,0L664.6,0L627.7,0L590.8,0L553.8,0L516.9,0L480,0L443.1,0L406.2,0L369.2,0L332.3,0L295.4,0L258.5,0L221.5,0L184.6,0L147.7,0L110.8,0L73.8,0L36.9,0L0,0Z"></path></svg>